<?xml version="1.0" encoding="utf-8"?>
<!-- Generator: Adobe Illustrator 16.0.0, SVG Export Plug-In . SVG Version: 6.00 Build 0)  -->
<!DOCTYPE svg PUBLIC "-//W3C//DTD SVG 1.1//EN" "http://www.w3.org/Graphics/SVG/1.1/DTD/svg11.dtd">
<svg version="1.1" xmlns="http://www.w3.org/2000/svg" xmlns:xlink="http://www.w3.org/1999/xlink" x="0px" y="0px"
	 width="608.667px" height="255.331px" viewBox="0 0 608.667 255.331" enable-background="new 0 0 608.667 255.331"
	 xml:space="preserve">
<g id="Calque_2">
</g>
<g id="Calque_1">
	<rect x="206.115" y="139.005" fill="#F3ED94" width="258.885" height="104.381"/>
	<rect x="91" y="55.44" fill="#7A2277" width="224" height="136"/>
	<path fill="#1D1D1B" d="M251.828,22.211v1.191c-8.667-1.747-17.904-2.624-27.719-2.624h-89.814
		c-2.093,0.541-3.137,1.081-3.137,1.622c0,0.631,1.044,1.216,3.141,1.757h16.851v113.551L121.672,23.63H90.177L41.796,201.245
		c-1.905,7.299-5.141,12.526-9.71,15.68c-3.048,1.983-7.332,3.155-12.852,3.515l-3.427,0.54c-0.571,0.361-0.857,0.812-0.857,1.353
		c0,0.54,0.33,0.969,1,1.284c0.665,0.316,1.473,0.473,2.428,0.473h48.836c0.95,0,1.758-0.156,2.427-0.473
		c0.665-0.315,1-0.744,1-1.284c0-0.541-0.384-0.991-1.146-1.353l-4.592-0.676c-5.552-0.449-9.906-1.689-13.062-3.717
		c-3.159-2.027-4.734-5.027-4.734-8.993c0-1.263,0.094-2.479,0.285-3.651l5.926-21.756h52.46l7.416,38.523H99.485
		c-0.955,0-1.714,0.151-2.285,0.456c-0.57,0.304-0.856,0.714-0.856,1.233s0.286,0.932,0.856,1.235
		c0.571,0.304,1.33,0.454,2.285,0.454h85.963c0.016-0.005,0.029-0.009,0.044-0.014h38.769c1.521,0,2.713-0.173,3.568-0.52
		c0.857-0.347,1.285-0.735,1.285-1.17c0-0.434-0.428-0.824-1.285-1.17c-0.855-0.347-2.047-0.52-3.568-0.52h-13.994v-99.351
		c13.975,0,22.855,0.587,26.635,1.757c6.422,2.074,9.635,6.173,9.635,12.301v71.506c0,6.129,3.512,10.859,10.535,14.192
		s17.367,5.001,31.035,5.001c4.125,0,8.055-0.203,11.804-0.595h96.149c2.089-0.606,3.133-1.17,3.133-1.689s-1.049-1.082-3.142-1.689
		h-22.276V25.725h9.14c2.664,0,5.471,0.629,8.425,1.886c2.949,1.259,6.711,4.94,11.28,11.048
		c7.042,9.523,13.28,21.268,18.707,35.235c5.426,13.969,8.139,23.511,8.139,28.631v5.255c0,0.629,0.38,1.147,1.143,1.55
		c0.759,0.406,1.615,0.606,2.57,0.606c1.143,0,2.093-0.2,2.856-0.606c0.758-0.405,1.142-0.923,1.142-1.552V22.211H251.828z
		 M54.272,178.671L82.778,74.049l21.696,104.622H54.272z M210.268,117.831V24.292h13.887c8.875,0,14.824,0.767,17.85,2.298
		c3.02,1.533,4.533,4.325,4.533,8.38v70.154c0,4.146-2.08,7.299-6.234,9.462c-4.158,2.163-9.541,3.244-16.148,3.244H210.268z
		 M234.779,119.782c15.559-2.523,27.041-5.138,34.443-7.844c12.334-4.507,21.631-10.233,27.895-17.177
		c6.262-6.942,9.395-14.877,9.395-23.805c0-13.814-6.507-25.03-19.479-33.658c3.715-4.85,7.498-8.091,11.348-9.682
		c3.043-1.259,6.662-1.891,10.853-1.891h5.997v190.81c-0.612,0.063-1.231,0.105-1.864,0.105c-2.477,0-4.477-0.449-5.998-1.35
		c-1.525-0.899-2.283-2.478-2.283-4.729v-49.443c0-8.465-2.789-15.354-8.363-20.668c-5.578-5.313-14.127-9.861-25.654-13.644
		C264.262,124.556,252.164,122.215,234.779,119.782z"/>
	<g>
		<path fill="#9DCB9E" d="M209.1,226.083l-8.697,0.019l-0.07-34.209c-0.009-4.547-1.747-6.818-5.211-6.812
			c-3.748,0.008-5.616,2.733-5.605,8.175l0.067,32.867l-8.591,0.018l-0.071-34.854c-0.004-1.754-0.493-3.222-1.468-4.401
			c-0.975-1.18-2.204-1.768-3.689-1.765c-3.818,0.008-5.723,2.501-5.712,7.477l0.069,33.565l-8.697,0.018l-0.096-46.938l8.803-0.018
			l0.009,4.243c2.751-3.371,5.964-5.062,9.642-5.068c4.137-0.009,7.145,1.938,9.027,5.836c2.891-3.837,6.37-5.761,10.436-5.769
			c6.505-0.014,9.766,3.758,9.782,11.312L209.1,226.083z"/>
		<path fill="#9DCB9E" d="M249.14,226.001l-8.697,0.018l-0.012-5.692l-0.265,0.001c-2.213,4.229-5.083,6.348-8.608,6.354
			c-2.998,0.006-5.645-1.411-7.943-4.253s-3.457-9.221-3.478-19.139c-0.018-8.808,0.833-15.155,2.553-19.043
			c1.72-3.888,4.678-5.837,8.875-5.846c1.974-0.004,3.571,0.458,4.789,1.387s2.465,2.412,3.739,4.45l0.265-0.001l-0.011-5.156
			l8.697-0.018L249.14,226.001z M234.914,218.995c2.206-0.005,3.673-1.351,4.403-4.037c0.729-2.687,1.088-7.253,1.075-13.697
			c-0.012-5.656-0.353-9.639-1.023-11.946s-2.073-3.46-4.208-3.456c-2.136,0.005-3.613,1.082-4.432,3.232
			c-0.818,2.149-1.221,6.035-1.209,11.655c0.014,6.624,0.346,11.323,1,14.096C231.173,217.616,232.637,219,234.914,218.995z"/>
		<path fill="#9DCB9E" d="M269.195,178.861l0.009,4.512l0.212-0.001c2.22-3.441,5.222-5.167,9.005-5.175
			c6.717-0.014,10.083,3.686,10.099,11.097l0.075,36.626l-8.591,0.018l-0.07-34.102c-0.01-4.619-1.817-6.925-5.424-6.917
			c-1.662,0.003-2.978,0.624-3.947,1.861c-0.97,1.237-1.452,2.93-1.448,5.078l0.07,34.102l-8.697,0.018l-0.097-47.099
			L269.195,178.861z"/>
		<path fill="#9DCB9E" d="M328.477,225.839l-8.697,0.018l-0.012-5.692h-0.266c-2.213,4.229-5.082,6.348-8.608,6.354
			c-2.998,0.007-5.645-1.411-7.943-4.253s-3.457-9.221-3.478-19.139c-0.018-8.808,0.833-15.154,2.553-19.043
			c1.72-3.888,4.678-5.837,8.875-5.846c1.974-0.004,3.571,0.459,4.789,1.387c1.218,0.93,2.465,2.412,3.739,4.45h0.265l-0.011-5.156
			l8.697-0.018L328.477,225.839z M314.25,218.832c2.206-0.004,3.673-1.35,4.403-4.037c0.729-2.686,1.088-7.252,1.075-13.696
			c-0.012-5.656-0.354-9.64-1.023-11.947s-2.073-3.46-4.208-3.455c-2.136,0.004-3.613,1.081-4.432,3.231
			c-0.818,2.15-1.221,6.036-1.209,11.656c0.014,6.624,0.346,11.322,1,14.096C310.509,217.453,311.974,218.837,314.25,218.832z"/>
		<path fill="#9DCB9E" d="M366.513,231.722c0.01,4.869-1.095,8.415-3.314,10.641c-2.218,2.224-5.763,3.341-10.632,3.351
			c-5.188,0.011-8.896-0.983-11.122-2.984c-2.228-2.001-3.329-5.687-3.305-11.057l8.326-0.017c0.293,5.119,2.251,7.675,5.875,7.667
			c3.73-0.007,5.592-1.927,5.584-5.757l-0.029-14.07h-0.211c-1.684,4.622-4.676,6.938-8.977,6.946
			c-2.963,0.006-5.469-1.439-7.521-4.335c-2.051-2.896-3.087-9.803-3.109-20.724c-0.021-9.845,0.9-16.175,2.764-18.99
			c1.863-2.813,4.486-4.225,7.871-4.231c2.327-0.005,4.082,0.421,5.266,1.278c1.184,0.856,2.395,2.233,3.633,4.128h0.211
			l-0.01-4.727l8.592-0.018L366.513,231.722z M352.723,218.324c2.005-0.005,3.366-1.126,4.082-3.365s1.069-6.008,1.059-11.307
			c-0.016-7.554-0.351-12.521-1.006-14.901c-0.656-2.379-2.058-3.567-4.203-3.563c-1.971,0.004-3.375,1.162-4.215,3.472
			c-0.84,2.312-1.254,6.01-1.243,11.093c0.014,6.731,0.331,11.511,0.952,14.338C348.771,216.918,350.294,218.329,352.723,218.324z"
			/>
		<path fill="#9DCB9E" d="M404.692,203.771l-19.516,0.04c0.01,5.084,0.362,8.924,1.058,11.518c0.694,2.595,2.332,3.889,4.913,3.884
			c1.979-0.004,3.321-0.759,4.025-2.265c0.704-1.505,1.07-3.868,1.1-7.091l7.901-0.017c-0.226,10.993-4.81,16.498-13.754,16.516
			c-9.617,0.021-14.44-7.667-14.473-23.063c-0.034-16.791,4.933-25.198,14.903-25.219c3.782-0.008,7.03,1.436,9.741,4.331
			c2.71,2.894,4.074,8.889,4.093,17.981L404.692,203.771z M395.928,196.969c-0.01-4.654-0.388-7.993-1.135-10.014
			c-0.746-2.021-2.092-3.03-4.036-3.026c-2.299,0.005-3.808,1.073-4.528,3.205c-0.72,2.132-1.075,5.417-1.066,9.856L395.928,196.969
			z"/>
		<path fill="#9DCB9E" d="M464.08,225.561l-8.697,0.018l-0.07-34.209c-0.01-4.547-1.747-6.817-5.212-6.811
			c-3.747,0.008-5.615,2.733-5.604,8.175l0.068,32.867l-8.591,0.018l-0.072-34.854c-0.003-1.754-0.492-3.222-1.468-4.401
			c-0.975-1.18-2.204-1.769-3.689-1.766c-3.818,0.009-5.722,2.502-5.712,7.478l0.069,33.565l-8.697,0.018l-0.097-46.938l8.804-0.019
			l0.009,4.243c2.751-3.371,5.963-5.061,9.641-5.068c4.137-0.009,7.146,1.938,9.028,5.836c2.891-3.837,6.369-5.76,10.435-5.769
			c6.505-0.014,9.766,3.759,9.781,11.313L464.08,225.561z"/>
		<path fill="#9DCB9E" d="M504.287,203.566l-19.516,0.04c0.01,5.084,0.362,8.923,1.058,11.518c0.694,2.594,2.332,3.889,4.913,3.884
			c1.979-0.005,3.321-0.759,4.025-2.265c0.704-1.505,1.07-3.868,1.1-7.091l7.901-0.017c-0.226,10.993-4.81,16.497-13.754,16.516
			c-9.617,0.02-14.44-7.668-14.473-23.063c-0.034-16.791,4.933-25.197,14.903-25.218c3.782-0.008,7.03,1.436,9.741,4.331
			c2.71,2.894,4.074,8.889,4.093,17.981L504.287,203.566z M495.522,196.764c-0.01-4.654-0.388-7.992-1.135-10.013
			c-0.746-2.021-2.092-3.03-4.036-3.026c-2.299,0.005-3.808,1.073-4.528,3.205c-0.72,2.131-1.075,5.417-1.066,9.856L495.522,196.764
			z"/>
		<path fill="#9DCB9E" d="M524.176,178.338l0.009,4.512h0.212c2.221-3.442,5.221-5.167,9.005-5.175
			c6.717-0.014,10.084,3.686,10.1,11.097l0.075,36.626l-8.592,0.018l-0.07-34.102c-0.01-4.619-1.817-6.926-5.424-6.918
			c-1.662,0.004-2.977,0.624-3.947,1.861c-0.97,1.237-1.452,2.93-1.447,5.078l0.07,34.102l-8.697,0.019l-0.097-47.099
			L524.176,178.338z"/>
		<path fill="#9DCB9E" d="M571.707,185.329l-5.568,0.012l0.083,40.01l-8.697,0.018l-0.083-40.01l-5.568,0.012l-0.014-6.928
			l5.568-0.012l-0.026-12.781l8.697-0.018l0.026,12.781l5.568-0.012L571.707,185.329z"/>
	</g>
	<g>
	</g>
	<g>
	</g>
	<g>
	</g>
	<g>
	</g>
	<g>
	</g>
	<g>
	</g>
</g>
</svg>
