<?xml version="1.0" encoding="utf-8"?>
<!-- Generator: Adobe Illustrator 16.0.0, SVG Export Plug-In . SVG Version: 6.00 Build 0)  -->
<!DOCTYPE svg PUBLIC "-//W3C//DTD SVG 1.1//EN" "http://www.w3.org/Graphics/SVG/1.1/DTD/svg11.dtd">
<svg version="1.1" xmlns="http://www.w3.org/2000/svg" xmlns:xlink="http://www.w3.org/1999/xlink" x="0px" y="0px"
	 width="608.667px" height="255.331px" viewBox="0 0 608.667 255.331" enable-background="new 0 0 608.667 255.331"
	 xml:space="preserve">
<g id="Calque_2">
</g>
<g id="Calque_1">
	<rect x="206.115" y="139.005" fill="#F4EE95" width="258.885" height="104.381"/>
	<rect x="91" y="55.44" fill="#9B709B" width="224" height="136"/>
	<path d="M251.828,22.211v1.191c-8.667-1.747-17.904-2.624-27.719-2.624h-89.814c-2.093,0.541-3.137,1.081-3.137,1.622
		c0,0.631,1.044,1.216,3.141,1.757h16.851v113.551L121.672,23.63H90.177L41.796,201.245c-1.905,7.299-5.141,12.526-9.71,15.68
		c-3.048,1.983-7.332,3.155-12.852,3.515l-3.427,0.54c-0.571,0.361-0.857,0.812-0.857,1.353c0,0.54,0.33,0.969,1,1.284
		c0.665,0.316,1.473,0.473,2.428,0.473h48.836c0.95,0,1.758-0.156,2.427-0.473c0.665-0.315,1-0.744,1-1.284
		c0-0.541-0.384-0.991-1.146-1.353l-4.592-0.676c-5.552-0.449-9.906-1.689-13.062-3.717c-3.159-2.027-4.734-5.027-4.734-8.993
		c0-1.263,0.094-2.479,0.285-3.651l5.926-21.756h52.46l7.416,38.523H99.485c-0.955,0-1.714,0.151-2.285,0.456
		c-0.57,0.304-0.856,0.714-0.856,1.233s0.286,0.932,0.856,1.235c0.571,0.304,1.33,0.454,2.285,0.454h85.963
		c0.016-0.005,0.029-0.009,0.044-0.014h38.769c1.521,0,2.713-0.173,3.568-0.52c0.857-0.347,1.285-0.735,1.285-1.17
		c0-0.434-0.428-0.824-1.285-1.17c-0.855-0.347-2.047-0.52-3.568-0.52h-13.994v-99.351c13.975,0,22.855,0.587,26.635,1.757
		c6.422,2.074,9.635,6.173,9.635,12.301v71.506c0,6.129,3.512,10.859,10.535,14.192s17.367,5.001,31.035,5.001
		c4.125,0,8.055-0.203,11.804-0.595h96.149c2.089-0.606,3.133-1.17,3.133-1.689s-1.049-1.082-3.142-1.689h-22.276V25.725h9.14
		c2.664,0,5.471,0.629,8.425,1.886c2.949,1.259,6.711,4.94,11.28,11.048c7.042,9.523,13.28,21.268,18.707,35.235
		c5.426,13.969,8.139,23.511,8.139,28.631v5.255c0,0.629,0.38,1.147,1.143,1.55c0.759,0.406,1.615,0.606,2.57,0.606
		c1.143,0,2.093-0.2,2.856-0.606c0.758-0.405,1.142-0.923,1.142-1.552V22.211H251.828z M54.272,178.671L82.778,74.049
		l21.696,104.622H54.272z M210.268,117.831V24.292h13.887c8.875,0,14.824,0.767,17.85,2.298c3.02,1.533,4.533,4.325,4.533,8.38
		v70.154c0,4.146-2.08,7.299-6.234,9.462c-4.158,2.163-9.541,3.244-16.148,3.244H210.268z M234.779,119.782
		c15.559-2.523,27.041-5.138,34.443-7.844c12.334-4.507,21.631-10.233,27.895-17.177c6.262-6.942,9.395-14.877,9.395-23.805
		c0-13.814-6.507-25.03-19.479-33.658c3.715-4.85,7.498-8.091,11.348-9.682c3.043-1.259,6.662-1.891,10.853-1.891h5.997v190.81
		c-0.612,0.063-1.231,0.105-1.864,0.105c-2.477,0-4.477-0.449-5.998-1.35c-1.525-0.899-2.283-2.478-2.283-4.729v-49.443
		c0-8.465-2.789-15.354-8.363-20.668c-5.578-5.313-14.127-9.861-25.654-13.644C264.262,124.556,252.164,122.215,234.779,119.782z"/>
	
		<text transform="matrix(0.9875 -0.002 0.0021 1 162.4658 226.1152)" fill="#9ECC9E" font-family="'TwCenMT-Condensed'" font-size="109.9856">management</text>
</g>
</svg>
