<?xml version="1.0" encoding="utf-8"?>
<!DOCTYPE svg PUBLIC "-//W3C//DTD SVG 1.0//EN" "http://www.w3.org/TR/2001/REC-SVG-20010904/DTD/svg10.dtd">
<svg xmlns="http://www.w3.org/2000/svg" xml:space="preserve" xmlns:xlink="http://www.w3.org/1999/xlink" width="780" height="780" viewBox="0 0 780 780">
<desc></desc>
<rect width="780" height="780" fill="#ffffff" cx="0" cy="0" />
<defs>
<rect id="p" width="20" height="20" />
</defs>
<g fill="#000000">
<use x="20" y="20" xlink:href="#p" />
<use x="40" y="20" xlink:href="#p" />
<use x="60" y="20" xlink:href="#p" />
<use x="80" y="20" xlink:href="#p" />
<use x="100" y="20" xlink:href="#p" />
<use x="120" y="20" xlink:href="#p" />
<use x="140" y="20" xlink:href="#p" />
<use x="260" y="20" xlink:href="#p" />
<use x="300" y="20" xlink:href="#p" />
<use x="320" y="20" xlink:href="#p" />
<use x="340" y="20" xlink:href="#p" />
<use x="360" y="20" xlink:href="#p" />
<use x="400" y="20" xlink:href="#p" />
<use x="460" y="20" xlink:href="#p" />
<use x="480" y="20" xlink:href="#p" />
<use x="500" y="20" xlink:href="#p" />
<use x="520" y="20" xlink:href="#p" />
<use x="540" y="20" xlink:href="#p" />
<use x="580" y="20" xlink:href="#p" />
<use x="620" y="20" xlink:href="#p" />
<use x="640" y="20" xlink:href="#p" />
<use x="660" y="20" xlink:href="#p" />
<use x="680" y="20" xlink:href="#p" />
<use x="700" y="20" xlink:href="#p" />
<use x="720" y="20" xlink:href="#p" />
<use x="740" y="20" xlink:href="#p" />
<use x="20" y="40" xlink:href="#p" />
<use x="140" y="40" xlink:href="#p" />
<use x="180" y="40" xlink:href="#p" />
<use x="200" y="40" xlink:href="#p" />
<use x="220" y="40" xlink:href="#p" />
<use x="260" y="40" xlink:href="#p" />
<use x="380" y="40" xlink:href="#p" />
<use x="520" y="40" xlink:href="#p" />
<use x="540" y="40" xlink:href="#p" />
<use x="580" y="40" xlink:href="#p" />
<use x="620" y="40" xlink:href="#p" />
<use x="740" y="40" xlink:href="#p" />
<use x="20" y="60" xlink:href="#p" />
<use x="60" y="60" xlink:href="#p" />
<use x="80" y="60" xlink:href="#p" />
<use x="100" y="60" xlink:href="#p" />
<use x="140" y="60" xlink:href="#p" />
<use x="180" y="60" xlink:href="#p" />
<use x="200" y="60" xlink:href="#p" />
<use x="280" y="60" xlink:href="#p" />
<use x="360" y="60" xlink:href="#p" />
<use x="380" y="60" xlink:href="#p" />
<use x="400" y="60" xlink:href="#p" />
<use x="440" y="60" xlink:href="#p" />
<use x="460" y="60" xlink:href="#p" />
<use x="500" y="60" xlink:href="#p" />
<use x="520" y="60" xlink:href="#p" />
<use x="620" y="60" xlink:href="#p" />
<use x="660" y="60" xlink:href="#p" />
<use x="680" y="60" xlink:href="#p" />
<use x="700" y="60" xlink:href="#p" />
<use x="740" y="60" xlink:href="#p" />
<use x="20" y="80" xlink:href="#p" />
<use x="60" y="80" xlink:href="#p" />
<use x="80" y="80" xlink:href="#p" />
<use x="100" y="80" xlink:href="#p" />
<use x="140" y="80" xlink:href="#p" />
<use x="180" y="80" xlink:href="#p" />
<use x="200" y="80" xlink:href="#p" />
<use x="240" y="80" xlink:href="#p" />
<use x="280" y="80" xlink:href="#p" />
<use x="320" y="80" xlink:href="#p" />
<use x="380" y="80" xlink:href="#p" />
<use x="460" y="80" xlink:href="#p" />
<use x="480" y="80" xlink:href="#p" />
<use x="580" y="80" xlink:href="#p" />
<use x="620" y="80" xlink:href="#p" />
<use x="660" y="80" xlink:href="#p" />
<use x="680" y="80" xlink:href="#p" />
<use x="700" y="80" xlink:href="#p" />
<use x="740" y="80" xlink:href="#p" />
<use x="20" y="100" xlink:href="#p" />
<use x="60" y="100" xlink:href="#p" />
<use x="80" y="100" xlink:href="#p" />
<use x="100" y="100" xlink:href="#p" />
<use x="140" y="100" xlink:href="#p" />
<use x="180" y="100" xlink:href="#p" />
<use x="200" y="100" xlink:href="#p" />
<use x="240" y="100" xlink:href="#p" />
<use x="260" y="100" xlink:href="#p" />
<use x="280" y="100" xlink:href="#p" />
<use x="320" y="100" xlink:href="#p" />
<use x="420" y="100" xlink:href="#p" />
<use x="500" y="100" xlink:href="#p" />
<use x="520" y="100" xlink:href="#p" />
<use x="540" y="100" xlink:href="#p" />
<use x="620" y="100" xlink:href="#p" />
<use x="660" y="100" xlink:href="#p" />
<use x="680" y="100" xlink:href="#p" />
<use x="700" y="100" xlink:href="#p" />
<use x="740" y="100" xlink:href="#p" />
<use x="20" y="120" xlink:href="#p" />
<use x="140" y="120" xlink:href="#p" />
<use x="180" y="120" xlink:href="#p" />
<use x="200" y="120" xlink:href="#p" />
<use x="240" y="120" xlink:href="#p" />
<use x="340" y="120" xlink:href="#p" />
<use x="360" y="120" xlink:href="#p" />
<use x="400" y="120" xlink:href="#p" />
<use x="420" y="120" xlink:href="#p" />
<use x="440" y="120" xlink:href="#p" />
<use x="480" y="120" xlink:href="#p" />
<use x="520" y="120" xlink:href="#p" />
<use x="540" y="120" xlink:href="#p" />
<use x="560" y="120" xlink:href="#p" />
<use x="580" y="120" xlink:href="#p" />
<use x="620" y="120" xlink:href="#p" />
<use x="740" y="120" xlink:href="#p" />
<use x="20" y="140" xlink:href="#p" />
<use x="40" y="140" xlink:href="#p" />
<use x="60" y="140" xlink:href="#p" />
<use x="80" y="140" xlink:href="#p" />
<use x="100" y="140" xlink:href="#p" />
<use x="120" y="140" xlink:href="#p" />
<use x="140" y="140" xlink:href="#p" />
<use x="180" y="140" xlink:href="#p" />
<use x="220" y="140" xlink:href="#p" />
<use x="260" y="140" xlink:href="#p" />
<use x="300" y="140" xlink:href="#p" />
<use x="340" y="140" xlink:href="#p" />
<use x="380" y="140" xlink:href="#p" />
<use x="420" y="140" xlink:href="#p" />
<use x="460" y="140" xlink:href="#p" />
<use x="500" y="140" xlink:href="#p" />
<use x="540" y="140" xlink:href="#p" />
<use x="580" y="140" xlink:href="#p" />
<use x="620" y="140" xlink:href="#p" />
<use x="640" y="140" xlink:href="#p" />
<use x="660" y="140" xlink:href="#p" />
<use x="680" y="140" xlink:href="#p" />
<use x="700" y="140" xlink:href="#p" />
<use x="720" y="140" xlink:href="#p" />
<use x="740" y="140" xlink:href="#p" />
<use x="240" y="160" xlink:href="#p" />
<use x="260" y="160" xlink:href="#p" />
<use x="300" y="160" xlink:href="#p" />
<use x="320" y="160" xlink:href="#p" />
<use x="360" y="160" xlink:href="#p" />
<use x="400" y="160" xlink:href="#p" />
<use x="420" y="160" xlink:href="#p" />
<use x="440" y="160" xlink:href="#p" />
<use x="460" y="160" xlink:href="#p" />
<use x="500" y="160" xlink:href="#p" />
<use x="560" y="160" xlink:href="#p" />
<use x="580" y="160" xlink:href="#p" />
<use x="60" y="180" xlink:href="#p" />
<use x="120" y="180" xlink:href="#p" />
<use x="140" y="180" xlink:href="#p" />
<use x="160" y="180" xlink:href="#p" />
<use x="180" y="180" xlink:href="#p" />
<use x="220" y="180" xlink:href="#p" />
<use x="300" y="180" xlink:href="#p" />
<use x="320" y="180" xlink:href="#p" />
<use x="360" y="180" xlink:href="#p" />
<use x="420" y="180" xlink:href="#p" />
<use x="480" y="180" xlink:href="#p" />
<use x="500" y="180" xlink:href="#p" />
<use x="520" y="180" xlink:href="#p" />
<use x="560" y="180" xlink:href="#p" />
<use x="580" y="180" xlink:href="#p" />
<use x="600" y="180" xlink:href="#p" />
<use x="640" y="180" xlink:href="#p" />
<use x="660" y="180" xlink:href="#p" />
<use x="680" y="180" xlink:href="#p" />
<use x="700" y="180" xlink:href="#p" />
<use x="720" y="180" xlink:href="#p" />
<use x="20" y="200" xlink:href="#p" />
<use x="80" y="200" xlink:href="#p" />
<use x="120" y="200" xlink:href="#p" />
<use x="160" y="200" xlink:href="#p" />
<use x="180" y="200" xlink:href="#p" />
<use x="200" y="200" xlink:href="#p" />
<use x="220" y="200" xlink:href="#p" />
<use x="260" y="200" xlink:href="#p" />
<use x="340" y="200" xlink:href="#p" />
<use x="400" y="200" xlink:href="#p" />
<use x="420" y="200" xlink:href="#p" />
<use x="480" y="200" xlink:href="#p" />
<use x="540" y="200" xlink:href="#p" />
<use x="560" y="200" xlink:href="#p" />
<use x="600" y="200" xlink:href="#p" />
<use x="640" y="200" xlink:href="#p" />
<use x="680" y="200" xlink:href="#p" />
<use x="720" y="200" xlink:href="#p" />
<use x="40" y="220" xlink:href="#p" />
<use x="60" y="220" xlink:href="#p" />
<use x="80" y="220" xlink:href="#p" />
<use x="120" y="220" xlink:href="#p" />
<use x="140" y="220" xlink:href="#p" />
<use x="180" y="220" xlink:href="#p" />
<use x="200" y="220" xlink:href="#p" />
<use x="220" y="220" xlink:href="#p" />
<use x="260" y="220" xlink:href="#p" />
<use x="360" y="220" xlink:href="#p" />
<use x="380" y="220" xlink:href="#p" />
<use x="420" y="220" xlink:href="#p" />
<use x="440" y="220" xlink:href="#p" />
<use x="480" y="220" xlink:href="#p" />
<use x="540" y="220" xlink:href="#p" />
<use x="560" y="220" xlink:href="#p" />
<use x="600" y="220" xlink:href="#p" />
<use x="620" y="220" xlink:href="#p" />
<use x="640" y="220" xlink:href="#p" />
<use x="680" y="220" xlink:href="#p" />
<use x="740" y="220" xlink:href="#p" />
<use x="60" y="240" xlink:href="#p" />
<use x="120" y="240" xlink:href="#p" />
<use x="180" y="240" xlink:href="#p" />
<use x="200" y="240" xlink:href="#p" />
<use x="220" y="240" xlink:href="#p" />
<use x="240" y="240" xlink:href="#p" />
<use x="260" y="240" xlink:href="#p" />
<use x="280" y="240" xlink:href="#p" />
<use x="320" y="240" xlink:href="#p" />
<use x="360" y="240" xlink:href="#p" />
<use x="380" y="240" xlink:href="#p" />
<use x="400" y="240" xlink:href="#p" />
<use x="460" y="240" xlink:href="#p" />
<use x="500" y="240" xlink:href="#p" />
<use x="560" y="240" xlink:href="#p" />
<use x="580" y="240" xlink:href="#p" />
<use x="640" y="240" xlink:href="#p" />
<use x="680" y="240" xlink:href="#p" />
<use x="740" y="240" xlink:href="#p" />
<use x="20" y="260" xlink:href="#p" />
<use x="100" y="260" xlink:href="#p" />
<use x="120" y="260" xlink:href="#p" />
<use x="140" y="260" xlink:href="#p" />
<use x="160" y="260" xlink:href="#p" />
<use x="200" y="260" xlink:href="#p" />
<use x="220" y="260" xlink:href="#p" />
<use x="340" y="260" xlink:href="#p" />
<use x="380" y="260" xlink:href="#p" />
<use x="440" y="260" xlink:href="#p" />
<use x="460" y="260" xlink:href="#p" />
<use x="520" y="260" xlink:href="#p" />
<use x="540" y="260" xlink:href="#p" />
<use x="560" y="260" xlink:href="#p" />
<use x="580" y="260" xlink:href="#p" />
<use x="600" y="260" xlink:href="#p" />
<use x="620" y="260" xlink:href="#p" />
<use x="640" y="260" xlink:href="#p" />
<use x="660" y="260" xlink:href="#p" />
<use x="680" y="260" xlink:href="#p" />
<use x="700" y="260" xlink:href="#p" />
<use x="740" y="260" xlink:href="#p" />
<use x="40" y="280" xlink:href="#p" />
<use x="60" y="280" xlink:href="#p" />
<use x="100" y="280" xlink:href="#p" />
<use x="120" y="280" xlink:href="#p" />
<use x="160" y="280" xlink:href="#p" />
<use x="180" y="280" xlink:href="#p" />
<use x="200" y="280" xlink:href="#p" />
<use x="260" y="280" xlink:href="#p" />
<use x="280" y="280" xlink:href="#p" />
<use x="300" y="280" xlink:href="#p" />
<use x="320" y="280" xlink:href="#p" />
<use x="340" y="280" xlink:href="#p" />
<use x="360" y="280" xlink:href="#p" />
<use x="400" y="280" xlink:href="#p" />
<use x="420" y="280" xlink:href="#p" />
<use x="560" y="280" xlink:href="#p" />
<use x="580" y="280" xlink:href="#p" />
<use x="620" y="280" xlink:href="#p" />
<use x="660" y="280" xlink:href="#p" />
<use x="700" y="280" xlink:href="#p" />
<use x="720" y="280" xlink:href="#p" />
<use x="740" y="280" xlink:href="#p" />
<use x="40" y="300" xlink:href="#p" />
<use x="80" y="300" xlink:href="#p" />
<use x="140" y="300" xlink:href="#p" />
<use x="240" y="300" xlink:href="#p" />
<use x="320" y="300" xlink:href="#p" />
<use x="340" y="300" xlink:href="#p" />
<use x="360" y="300" xlink:href="#p" />
<use x="400" y="300" xlink:href="#p" />
<use x="440" y="300" xlink:href="#p" />
<use x="480" y="300" xlink:href="#p" />
<use x="580" y="300" xlink:href="#p" />
<use x="640" y="300" xlink:href="#p" />
<use x="680" y="300" xlink:href="#p" />
<use x="700" y="300" xlink:href="#p" />
<use x="740" y="300" xlink:href="#p" />
<use x="80" y="320" xlink:href="#p" />
<use x="120" y="320" xlink:href="#p" />
<use x="180" y="320" xlink:href="#p" />
<use x="280" y="320" xlink:href="#p" />
<use x="300" y="320" xlink:href="#p" />
<use x="360" y="320" xlink:href="#p" />
<use x="380" y="320" xlink:href="#p" />
<use x="420" y="320" xlink:href="#p" />
<use x="500" y="320" xlink:href="#p" />
<use x="560" y="320" xlink:href="#p" />
<use x="600" y="320" xlink:href="#p" />
<use x="640" y="320" xlink:href="#p" />
<use x="680" y="320" xlink:href="#p" />
<use x="740" y="320" xlink:href="#p" />
<use x="20" y="340" xlink:href="#p" />
<use x="100" y="340" xlink:href="#p" />
<use x="140" y="340" xlink:href="#p" />
<use x="160" y="340" xlink:href="#p" />
<use x="180" y="340" xlink:href="#p" />
<use x="220" y="340" xlink:href="#p" />
<use x="260" y="340" xlink:href="#p" />
<use x="320" y="340" xlink:href="#p" />
<use x="340" y="340" xlink:href="#p" />
<use x="380" y="340" xlink:href="#p" />
<use x="400" y="340" xlink:href="#p" />
<use x="440" y="340" xlink:href="#p" />
<use x="480" y="340" xlink:href="#p" />
<use x="520" y="340" xlink:href="#p" />
<use x="560" y="340" xlink:href="#p" />
<use x="600" y="340" xlink:href="#p" />
<use x="640" y="340" xlink:href="#p" />
<use x="660" y="340" xlink:href="#p" />
<use x="20" y="360" xlink:href="#p" />
<use x="40" y="360" xlink:href="#p" />
<use x="60" y="360" xlink:href="#p" />
<use x="80" y="360" xlink:href="#p" />
<use x="100" y="360" xlink:href="#p" />
<use x="160" y="360" xlink:href="#p" />
<use x="200" y="360" xlink:href="#p" />
<use x="240" y="360" xlink:href="#p" />
<use x="260" y="360" xlink:href="#p" />
<use x="300" y="360" xlink:href="#p" />
<use x="320" y="360" xlink:href="#p" />
<use x="360" y="360" xlink:href="#p" />
<use x="380" y="360" xlink:href="#p" />
<use x="400" y="360" xlink:href="#p" />
<use x="440" y="360" xlink:href="#p" />
<use x="540" y="360" xlink:href="#p" />
<use x="560" y="360" xlink:href="#p" />
<use x="620" y="360" xlink:href="#p" />
<use x="680" y="360" xlink:href="#p" />
<use x="740" y="360" xlink:href="#p" />
<use x="20" y="380" xlink:href="#p" />
<use x="60" y="380" xlink:href="#p" />
<use x="120" y="380" xlink:href="#p" />
<use x="140" y="380" xlink:href="#p" />
<use x="160" y="380" xlink:href="#p" />
<use x="180" y="380" xlink:href="#p" />
<use x="220" y="380" xlink:href="#p" />
<use x="320" y="380" xlink:href="#p" />
<use x="400" y="380" xlink:href="#p" />
<use x="420" y="380" xlink:href="#p" />
<use x="460" y="380" xlink:href="#p" />
<use x="480" y="380" xlink:href="#p" />
<use x="500" y="380" xlink:href="#p" />
<use x="620" y="380" xlink:href="#p" />
<use x="640" y="380" xlink:href="#p" />
<use x="660" y="380" xlink:href="#p" />
<use x="680" y="380" xlink:href="#p" />
<use x="740" y="380" xlink:href="#p" />
<use x="60" y="400" xlink:href="#p" />
<use x="80" y="400" xlink:href="#p" />
<use x="100" y="400" xlink:href="#p" />
<use x="120" y="400" xlink:href="#p" />
<use x="200" y="400" xlink:href="#p" />
<use x="240" y="400" xlink:href="#p" />
<use x="260" y="400" xlink:href="#p" />
<use x="300" y="400" xlink:href="#p" />
<use x="320" y="400" xlink:href="#p" />
<use x="400" y="400" xlink:href="#p" />
<use x="440" y="400" xlink:href="#p" />
<use x="520" y="400" xlink:href="#p" />
<use x="620" y="400" xlink:href="#p" />
<use x="660" y="400" xlink:href="#p" />
<use x="20" y="420" xlink:href="#p" />
<use x="40" y="420" xlink:href="#p" />
<use x="140" y="420" xlink:href="#p" />
<use x="160" y="420" xlink:href="#p" />
<use x="200" y="420" xlink:href="#p" />
<use x="220" y="420" xlink:href="#p" />
<use x="280" y="420" xlink:href="#p" />
<use x="320" y="420" xlink:href="#p" />
<use x="340" y="420" xlink:href="#p" />
<use x="380" y="420" xlink:href="#p" />
<use x="400" y="420" xlink:href="#p" />
<use x="460" y="420" xlink:href="#p" />
<use x="480" y="420" xlink:href="#p" />
<use x="500" y="420" xlink:href="#p" />
<use x="520" y="420" xlink:href="#p" />
<use x="540" y="420" xlink:href="#p" />
<use x="560" y="420" xlink:href="#p" />
<use x="580" y="420" xlink:href="#p" />
<use x="620" y="420" xlink:href="#p" />
<use x="680" y="420" xlink:href="#p" />
<use x="740" y="420" xlink:href="#p" />
<use x="180" y="440" xlink:href="#p" />
<use x="220" y="440" xlink:href="#p" />
<use x="240" y="440" xlink:href="#p" />
<use x="280" y="440" xlink:href="#p" />
<use x="300" y="440" xlink:href="#p" />
<use x="320" y="440" xlink:href="#p" />
<use x="440" y="440" xlink:href="#p" />
<use x="460" y="440" xlink:href="#p" />
<use x="480" y="440" xlink:href="#p" />
<use x="560" y="440" xlink:href="#p" />
<use x="580" y="440" xlink:href="#p" />
<use x="600" y="440" xlink:href="#p" />
<use x="640" y="440" xlink:href="#p" />
<use x="680" y="440" xlink:href="#p" />
<use x="720" y="440" xlink:href="#p" />
<use x="20" y="460" xlink:href="#p" />
<use x="40" y="460" xlink:href="#p" />
<use x="60" y="460" xlink:href="#p" />
<use x="140" y="460" xlink:href="#p" />
<use x="180" y="460" xlink:href="#p" />
<use x="200" y="460" xlink:href="#p" />
<use x="220" y="460" xlink:href="#p" />
<use x="260" y="460" xlink:href="#p" />
<use x="400" y="460" xlink:href="#p" />
<use x="420" y="460" xlink:href="#p" />
<use x="540" y="460" xlink:href="#p" />
<use x="620" y="460" xlink:href="#p" />
<use x="640" y="460" xlink:href="#p" />
<use x="660" y="460" xlink:href="#p" />
<use x="720" y="460" xlink:href="#p" />
<use x="40" y="480" xlink:href="#p" />
<use x="80" y="480" xlink:href="#p" />
<use x="100" y="480" xlink:href="#p" />
<use x="120" y="480" xlink:href="#p" />
<use x="160" y="480" xlink:href="#p" />
<use x="200" y="480" xlink:href="#p" />
<use x="240" y="480" xlink:href="#p" />
<use x="260" y="480" xlink:href="#p" />
<use x="280" y="480" xlink:href="#p" />
<use x="300" y="480" xlink:href="#p" />
<use x="380" y="480" xlink:href="#p" />
<use x="420" y="480" xlink:href="#p" />
<use x="460" y="480" xlink:href="#p" />
<use x="520" y="480" xlink:href="#p" />
<use x="540" y="480" xlink:href="#p" />
<use x="560" y="480" xlink:href="#p" />
<use x="580" y="480" xlink:href="#p" />
<use x="600" y="480" xlink:href="#p" />
<use x="620" y="480" xlink:href="#p" />
<use x="640" y="480" xlink:href="#p" />
<use x="740" y="480" xlink:href="#p" />
<use x="20" y="500" xlink:href="#p" />
<use x="60" y="500" xlink:href="#p" />
<use x="100" y="500" xlink:href="#p" />
<use x="140" y="500" xlink:href="#p" />
<use x="180" y="500" xlink:href="#p" />
<use x="200" y="500" xlink:href="#p" />
<use x="220" y="500" xlink:href="#p" />
<use x="280" y="500" xlink:href="#p" />
<use x="300" y="500" xlink:href="#p" />
<use x="320" y="500" xlink:href="#p" />
<use x="340" y="500" xlink:href="#p" />
<use x="360" y="500" xlink:href="#p" />
<use x="400" y="500" xlink:href="#p" />
<use x="460" y="500" xlink:href="#p" />
<use x="480" y="500" xlink:href="#p" />
<use x="500" y="500" xlink:href="#p" />
<use x="520" y="500" xlink:href="#p" />
<use x="580" y="500" xlink:href="#p" />
<use x="620" y="500" xlink:href="#p" />
<use x="680" y="500" xlink:href="#p" />
<use x="740" y="500" xlink:href="#p" />
<use x="40" y="520" xlink:href="#p" />
<use x="120" y="520" xlink:href="#p" />
<use x="160" y="520" xlink:href="#p" />
<use x="240" y="520" xlink:href="#p" />
<use x="260" y="520" xlink:href="#p" />
<use x="300" y="520" xlink:href="#p" />
<use x="320" y="520" xlink:href="#p" />
<use x="420" y="520" xlink:href="#p" />
<use x="440" y="520" xlink:href="#p" />
<use x="460" y="520" xlink:href="#p" />
<use x="540" y="520" xlink:href="#p" />
<use x="560" y="520" xlink:href="#p" />
<use x="580" y="520" xlink:href="#p" />
<use x="600" y="520" xlink:href="#p" />
<use x="640" y="520" xlink:href="#p" />
<use x="660" y="520" xlink:href="#p" />
<use x="680" y="520" xlink:href="#p" />
<use x="20" y="540" xlink:href="#p" />
<use x="40" y="540" xlink:href="#p" />
<use x="60" y="540" xlink:href="#p" />
<use x="80" y="540" xlink:href="#p" />
<use x="100" y="540" xlink:href="#p" />
<use x="140" y="540" xlink:href="#p" />
<use x="160" y="540" xlink:href="#p" />
<use x="200" y="540" xlink:href="#p" />
<use x="240" y="540" xlink:href="#p" />
<use x="260" y="540" xlink:href="#p" />
<use x="300" y="540" xlink:href="#p" />
<use x="340" y="540" xlink:href="#p" />
<use x="440" y="540" xlink:href="#p" />
<use x="460" y="540" xlink:href="#p" />
<use x="480" y="540" xlink:href="#p" />
<use x="500" y="540" xlink:href="#p" />
<use x="520" y="540" xlink:href="#p" />
<use x="540" y="540" xlink:href="#p" />
<use x="560" y="540" xlink:href="#p" />
<use x="600" y="540" xlink:href="#p" />
<use x="620" y="540" xlink:href="#p" />
<use x="640" y="540" xlink:href="#p" />
<use x="700" y="540" xlink:href="#p" />
<use x="720" y="540" xlink:href="#p" />
<use x="60" y="560" xlink:href="#p" />
<use x="80" y="560" xlink:href="#p" />
<use x="120" y="560" xlink:href="#p" />
<use x="180" y="560" xlink:href="#p" />
<use x="220" y="560" xlink:href="#p" />
<use x="260" y="560" xlink:href="#p" />
<use x="280" y="560" xlink:href="#p" />
<use x="320" y="560" xlink:href="#p" />
<use x="360" y="560" xlink:href="#p" />
<use x="440" y="560" xlink:href="#p" />
<use x="480" y="560" xlink:href="#p" />
<use x="520" y="560" xlink:href="#p" />
<use x="560" y="560" xlink:href="#p" />
<use x="580" y="560" xlink:href="#p" />
<use x="640" y="560" xlink:href="#p" />
<use x="680" y="560" xlink:href="#p" />
<use x="700" y="560" xlink:href="#p" />
<use x="740" y="560" xlink:href="#p" />
<use x="20" y="580" xlink:href="#p" />
<use x="40" y="580" xlink:href="#p" />
<use x="60" y="580" xlink:href="#p" />
<use x="80" y="580" xlink:href="#p" />
<use x="100" y="580" xlink:href="#p" />
<use x="120" y="580" xlink:href="#p" />
<use x="140" y="580" xlink:href="#p" />
<use x="180" y="580" xlink:href="#p" />
<use x="200" y="580" xlink:href="#p" />
<use x="240" y="580" xlink:href="#p" />
<use x="280" y="580" xlink:href="#p" />
<use x="420" y="580" xlink:href="#p" />
<use x="460" y="580" xlink:href="#p" />
<use x="480" y="580" xlink:href="#p" />
<use x="540" y="580" xlink:href="#p" />
<use x="560" y="580" xlink:href="#p" />
<use x="580" y="580" xlink:href="#p" />
<use x="600" y="580" xlink:href="#p" />
<use x="620" y="580" xlink:href="#p" />
<use x="640" y="580" xlink:href="#p" />
<use x="660" y="580" xlink:href="#p" />
<use x="740" y="580" xlink:href="#p" />
<use x="180" y="600" xlink:href="#p" />
<use x="200" y="600" xlink:href="#p" />
<use x="220" y="600" xlink:href="#p" />
<use x="240" y="600" xlink:href="#p" />
<use x="280" y="600" xlink:href="#p" />
<use x="300" y="600" xlink:href="#p" />
<use x="340" y="600" xlink:href="#p" />
<use x="360" y="600" xlink:href="#p" />
<use x="380" y="600" xlink:href="#p" />
<use x="420" y="600" xlink:href="#p" />
<use x="480" y="600" xlink:href="#p" />
<use x="500" y="600" xlink:href="#p" />
<use x="580" y="600" xlink:href="#p" />
<use x="660" y="600" xlink:href="#p" />
<use x="680" y="600" xlink:href="#p" />
<use x="740" y="600" xlink:href="#p" />
<use x="20" y="620" xlink:href="#p" />
<use x="40" y="620" xlink:href="#p" />
<use x="60" y="620" xlink:href="#p" />
<use x="80" y="620" xlink:href="#p" />
<use x="100" y="620" xlink:href="#p" />
<use x="120" y="620" xlink:href="#p" />
<use x="140" y="620" xlink:href="#p" />
<use x="180" y="620" xlink:href="#p" />
<use x="200" y="620" xlink:href="#p" />
<use x="240" y="620" xlink:href="#p" />
<use x="260" y="620" xlink:href="#p" />
<use x="320" y="620" xlink:href="#p" />
<use x="400" y="620" xlink:href="#p" />
<use x="460" y="620" xlink:href="#p" />
<use x="580" y="620" xlink:href="#p" />
<use x="620" y="620" xlink:href="#p" />
<use x="660" y="620" xlink:href="#p" />
<use x="680" y="620" xlink:href="#p" />
<use x="700" y="620" xlink:href="#p" />
<use x="720" y="620" xlink:href="#p" />
<use x="740" y="620" xlink:href="#p" />
<use x="20" y="640" xlink:href="#p" />
<use x="140" y="640" xlink:href="#p" />
<use x="180" y="640" xlink:href="#p" />
<use x="200" y="640" xlink:href="#p" />
<use x="300" y="640" xlink:href="#p" />
<use x="320" y="640" xlink:href="#p" />
<use x="400" y="640" xlink:href="#p" />
<use x="420" y="640" xlink:href="#p" />
<use x="460" y="640" xlink:href="#p" />
<use x="480" y="640" xlink:href="#p" />
<use x="580" y="640" xlink:href="#p" />
<use x="660" y="640" xlink:href="#p" />
<use x="680" y="640" xlink:href="#p" />
<use x="20" y="660" xlink:href="#p" />
<use x="60" y="660" xlink:href="#p" />
<use x="80" y="660" xlink:href="#p" />
<use x="100" y="660" xlink:href="#p" />
<use x="140" y="660" xlink:href="#p" />
<use x="240" y="660" xlink:href="#p" />
<use x="280" y="660" xlink:href="#p" />
<use x="340" y="660" xlink:href="#p" />
<use x="400" y="660" xlink:href="#p" />
<use x="420" y="660" xlink:href="#p" />
<use x="480" y="660" xlink:href="#p" />
<use x="540" y="660" xlink:href="#p" />
<use x="560" y="660" xlink:href="#p" />
<use x="580" y="660" xlink:href="#p" />
<use x="600" y="660" xlink:href="#p" />
<use x="620" y="660" xlink:href="#p" />
<use x="640" y="660" xlink:href="#p" />
<use x="660" y="660" xlink:href="#p" />
<use x="720" y="660" xlink:href="#p" />
<use x="20" y="680" xlink:href="#p" />
<use x="60" y="680" xlink:href="#p" />
<use x="80" y="680" xlink:href="#p" />
<use x="100" y="680" xlink:href="#p" />
<use x="140" y="680" xlink:href="#p" />
<use x="200" y="680" xlink:href="#p" />
<use x="220" y="680" xlink:href="#p" />
<use x="240" y="680" xlink:href="#p" />
<use x="280" y="680" xlink:href="#p" />
<use x="300" y="680" xlink:href="#p" />
<use x="380" y="680" xlink:href="#p" />
<use x="420" y="680" xlink:href="#p" />
<use x="460" y="680" xlink:href="#p" />
<use x="540" y="680" xlink:href="#p" />
<use x="560" y="680" xlink:href="#p" />
<use x="580" y="680" xlink:href="#p" />
<use x="600" y="680" xlink:href="#p" />
<use x="640" y="680" xlink:href="#p" />
<use x="660" y="680" xlink:href="#p" />
<use x="680" y="680" xlink:href="#p" />
<use x="700" y="680" xlink:href="#p" />
<use x="20" y="700" xlink:href="#p" />
<use x="60" y="700" xlink:href="#p" />
<use x="80" y="700" xlink:href="#p" />
<use x="100" y="700" xlink:href="#p" />
<use x="140" y="700" xlink:href="#p" />
<use x="180" y="700" xlink:href="#p" />
<use x="200" y="700" xlink:href="#p" />
<use x="240" y="700" xlink:href="#p" />
<use x="300" y="700" xlink:href="#p" />
<use x="360" y="700" xlink:href="#p" />
<use x="420" y="700" xlink:href="#p" />
<use x="440" y="700" xlink:href="#p" />
<use x="480" y="700" xlink:href="#p" />
<use x="580" y="700" xlink:href="#p" />
<use x="640" y="700" xlink:href="#p" />
<use x="660" y="700" xlink:href="#p" />
<use x="680" y="700" xlink:href="#p" />
<use x="720" y="700" xlink:href="#p" />
<use x="740" y="700" xlink:href="#p" />
<use x="20" y="720" xlink:href="#p" />
<use x="140" y="720" xlink:href="#p" />
<use x="200" y="720" xlink:href="#p" />
<use x="240" y="720" xlink:href="#p" />
<use x="280" y="720" xlink:href="#p" />
<use x="300" y="720" xlink:href="#p" />
<use x="320" y="720" xlink:href="#p" />
<use x="360" y="720" xlink:href="#p" />
<use x="380" y="720" xlink:href="#p" />
<use x="400" y="720" xlink:href="#p" />
<use x="420" y="720" xlink:href="#p" />
<use x="440" y="720" xlink:href="#p" />
<use x="480" y="720" xlink:href="#p" />
<use x="540" y="720" xlink:href="#p" />
<use x="620" y="720" xlink:href="#p" />
<use x="660" y="720" xlink:href="#p" />
<use x="680" y="720" xlink:href="#p" />
<use x="700" y="720" xlink:href="#p" />
<use x="20" y="740" xlink:href="#p" />
<use x="40" y="740" xlink:href="#p" />
<use x="60" y="740" xlink:href="#p" />
<use x="80" y="740" xlink:href="#p" />
<use x="100" y="740" xlink:href="#p" />
<use x="120" y="740" xlink:href="#p" />
<use x="140" y="740" xlink:href="#p" />
<use x="200" y="740" xlink:href="#p" />
<use x="220" y="740" xlink:href="#p" />
<use x="280" y="740" xlink:href="#p" />
<use x="300" y="740" xlink:href="#p" />
<use x="320" y="740" xlink:href="#p" />
<use x="340" y="740" xlink:href="#p" />
<use x="360" y="740" xlink:href="#p" />
<use x="420" y="740" xlink:href="#p" />
<use x="480" y="740" xlink:href="#p" />
<use x="500" y="740" xlink:href="#p" />
<use x="520" y="740" xlink:href="#p" />
<use x="540" y="740" xlink:href="#p" />
<use x="580" y="740" xlink:href="#p" />
<use x="660" y="740" xlink:href="#p" />
<use x="680" y="740" xlink:href="#p" />
<use x="700" y="740" xlink:href="#p" />
<use x="740" y="740" xlink:href="#p" />
</g>
</svg>