<?xml version="1.0" encoding="utf-8"?>
<!DOCTYPE svg PUBLIC "-//W3C//DTD SVG 1.0//EN" "http://www.w3.org/TR/2001/REC-SVG-20010904/DTD/svg10.dtd">
<svg xmlns="http://www.w3.org/2000/svg" xml:space="preserve" xmlns:xlink="http://www.w3.org/1999/xlink" width="860" height="860" viewBox="0 0 860 860">
<desc></desc>
<rect width="860" height="860" fill="#ffffff" cx="0" cy="0" />
<defs>
<rect id="p" width="20" height="20" />
</defs>
<g fill="#000000">
<use x="20" y="20" xlink:href="#p" />
<use x="40" y="20" xlink:href="#p" />
<use x="60" y="20" xlink:href="#p" />
<use x="80" y="20" xlink:href="#p" />
<use x="100" y="20" xlink:href="#p" />
<use x="120" y="20" xlink:href="#p" />
<use x="140" y="20" xlink:href="#p" />
<use x="200" y="20" xlink:href="#p" />
<use x="240" y="20" xlink:href="#p" />
<use x="360" y="20" xlink:href="#p" />
<use x="420" y="20" xlink:href="#p" />
<use x="460" y="20" xlink:href="#p" />
<use x="520" y="20" xlink:href="#p" />
<use x="580" y="20" xlink:href="#p" />
<use x="640" y="20" xlink:href="#p" />
<use x="700" y="20" xlink:href="#p" />
<use x="720" y="20" xlink:href="#p" />
<use x="740" y="20" xlink:href="#p" />
<use x="760" y="20" xlink:href="#p" />
<use x="780" y="20" xlink:href="#p" />
<use x="800" y="20" xlink:href="#p" />
<use x="820" y="20" xlink:href="#p" />
<use x="20" y="40" xlink:href="#p" />
<use x="140" y="40" xlink:href="#p" />
<use x="180" y="40" xlink:href="#p" />
<use x="240" y="40" xlink:href="#p" />
<use x="260" y="40" xlink:href="#p" />
<use x="300" y="40" xlink:href="#p" />
<use x="320" y="40" xlink:href="#p" />
<use x="360" y="40" xlink:href="#p" />
<use x="380" y="40" xlink:href="#p" />
<use x="400" y="40" xlink:href="#p" />
<use x="420" y="40" xlink:href="#p" />
<use x="480" y="40" xlink:href="#p" />
<use x="580" y="40" xlink:href="#p" />
<use x="600" y="40" xlink:href="#p" />
<use x="620" y="40" xlink:href="#p" />
<use x="660" y="40" xlink:href="#p" />
<use x="700" y="40" xlink:href="#p" />
<use x="820" y="40" xlink:href="#p" />
<use x="20" y="60" xlink:href="#p" />
<use x="60" y="60" xlink:href="#p" />
<use x="80" y="60" xlink:href="#p" />
<use x="100" y="60" xlink:href="#p" />
<use x="140" y="60" xlink:href="#p" />
<use x="180" y="60" xlink:href="#p" />
<use x="220" y="60" xlink:href="#p" />
<use x="260" y="60" xlink:href="#p" />
<use x="340" y="60" xlink:href="#p" />
<use x="360" y="60" xlink:href="#p" />
<use x="380" y="60" xlink:href="#p" />
<use x="400" y="60" xlink:href="#p" />
<use x="460" y="60" xlink:href="#p" />
<use x="480" y="60" xlink:href="#p" />
<use x="520" y="60" xlink:href="#p" />
<use x="580" y="60" xlink:href="#p" />
<use x="620" y="60" xlink:href="#p" />
<use x="700" y="60" xlink:href="#p" />
<use x="740" y="60" xlink:href="#p" />
<use x="760" y="60" xlink:href="#p" />
<use x="780" y="60" xlink:href="#p" />
<use x="820" y="60" xlink:href="#p" />
<use x="20" y="80" xlink:href="#p" />
<use x="60" y="80" xlink:href="#p" />
<use x="80" y="80" xlink:href="#p" />
<use x="100" y="80" xlink:href="#p" />
<use x="140" y="80" xlink:href="#p" />
<use x="180" y="80" xlink:href="#p" />
<use x="220" y="80" xlink:href="#p" />
<use x="240" y="80" xlink:href="#p" />
<use x="280" y="80" xlink:href="#p" />
<use x="320" y="80" xlink:href="#p" />
<use x="360" y="80" xlink:href="#p" />
<use x="380" y="80" xlink:href="#p" />
<use x="400" y="80" xlink:href="#p" />
<use x="420" y="80" xlink:href="#p" />
<use x="460" y="80" xlink:href="#p" />
<use x="480" y="80" xlink:href="#p" />
<use x="620" y="80" xlink:href="#p" />
<use x="700" y="80" xlink:href="#p" />
<use x="740" y="80" xlink:href="#p" />
<use x="760" y="80" xlink:href="#p" />
<use x="780" y="80" xlink:href="#p" />
<use x="820" y="80" xlink:href="#p" />
<use x="20" y="100" xlink:href="#p" />
<use x="60" y="100" xlink:href="#p" />
<use x="80" y="100" xlink:href="#p" />
<use x="100" y="100" xlink:href="#p" />
<use x="140" y="100" xlink:href="#p" />
<use x="180" y="100" xlink:href="#p" />
<use x="200" y="100" xlink:href="#p" />
<use x="220" y="100" xlink:href="#p" />
<use x="380" y="100" xlink:href="#p" />
<use x="400" y="100" xlink:href="#p" />
<use x="440" y="100" xlink:href="#p" />
<use x="460" y="100" xlink:href="#p" />
<use x="480" y="100" xlink:href="#p" />
<use x="500" y="100" xlink:href="#p" />
<use x="520" y="100" xlink:href="#p" />
<use x="600" y="100" xlink:href="#p" />
<use x="620" y="100" xlink:href="#p" />
<use x="660" y="100" xlink:href="#p" />
<use x="700" y="100" xlink:href="#p" />
<use x="740" y="100" xlink:href="#p" />
<use x="760" y="100" xlink:href="#p" />
<use x="780" y="100" xlink:href="#p" />
<use x="820" y="100" xlink:href="#p" />
<use x="20" y="120" xlink:href="#p" />
<use x="140" y="120" xlink:href="#p" />
<use x="180" y="120" xlink:href="#p" />
<use x="200" y="120" xlink:href="#p" />
<use x="220" y="120" xlink:href="#p" />
<use x="280" y="120" xlink:href="#p" />
<use x="300" y="120" xlink:href="#p" />
<use x="320" y="120" xlink:href="#p" />
<use x="340" y="120" xlink:href="#p" />
<use x="420" y="120" xlink:href="#p" />
<use x="460" y="120" xlink:href="#p" />
<use x="520" y="120" xlink:href="#p" />
<use x="540" y="120" xlink:href="#p" />
<use x="560" y="120" xlink:href="#p" />
<use x="660" y="120" xlink:href="#p" />
<use x="700" y="120" xlink:href="#p" />
<use x="820" y="120" xlink:href="#p" />
<use x="20" y="140" xlink:href="#p" />
<use x="40" y="140" xlink:href="#p" />
<use x="60" y="140" xlink:href="#p" />
<use x="80" y="140" xlink:href="#p" />
<use x="100" y="140" xlink:href="#p" />
<use x="120" y="140" xlink:href="#p" />
<use x="140" y="140" xlink:href="#p" />
<use x="180" y="140" xlink:href="#p" />
<use x="220" y="140" xlink:href="#p" />
<use x="260" y="140" xlink:href="#p" />
<use x="300" y="140" xlink:href="#p" />
<use x="340" y="140" xlink:href="#p" />
<use x="380" y="140" xlink:href="#p" />
<use x="420" y="140" xlink:href="#p" />
<use x="460" y="140" xlink:href="#p" />
<use x="500" y="140" xlink:href="#p" />
<use x="540" y="140" xlink:href="#p" />
<use x="580" y="140" xlink:href="#p" />
<use x="620" y="140" xlink:href="#p" />
<use x="660" y="140" xlink:href="#p" />
<use x="700" y="140" xlink:href="#p" />
<use x="720" y="140" xlink:href="#p" />
<use x="740" y="140" xlink:href="#p" />
<use x="760" y="140" xlink:href="#p" />
<use x="780" y="140" xlink:href="#p" />
<use x="800" y="140" xlink:href="#p" />
<use x="820" y="140" xlink:href="#p" />
<use x="200" y="160" xlink:href="#p" />
<use x="220" y="160" xlink:href="#p" />
<use x="320" y="160" xlink:href="#p" />
<use x="360" y="160" xlink:href="#p" />
<use x="380" y="160" xlink:href="#p" />
<use x="400" y="160" xlink:href="#p" />
<use x="480" y="160" xlink:href="#p" />
<use x="500" y="160" xlink:href="#p" />
<use x="540" y="160" xlink:href="#p" />
<use x="560" y="160" xlink:href="#p" />
<use x="600" y="160" xlink:href="#p" />
<use x="640" y="160" xlink:href="#p" />
<use x="660" y="160" xlink:href="#p" />
<use x="60" y="180" xlink:href="#p" />
<use x="120" y="180" xlink:href="#p" />
<use x="140" y="180" xlink:href="#p" />
<use x="160" y="180" xlink:href="#p" />
<use x="180" y="180" xlink:href="#p" />
<use x="220" y="180" xlink:href="#p" />
<use x="240" y="180" xlink:href="#p" />
<use x="260" y="180" xlink:href="#p" />
<use x="300" y="180" xlink:href="#p" />
<use x="380" y="180" xlink:href="#p" />
<use x="440" y="180" xlink:href="#p" />
<use x="480" y="180" xlink:href="#p" />
<use x="540" y="180" xlink:href="#p" />
<use x="560" y="180" xlink:href="#p" />
<use x="580" y="180" xlink:href="#p" />
<use x="620" y="180" xlink:href="#p" />
<use x="640" y="180" xlink:href="#p" />
<use x="660" y="180" xlink:href="#p" />
<use x="680" y="180" xlink:href="#p" />
<use x="720" y="180" xlink:href="#p" />
<use x="740" y="180" xlink:href="#p" />
<use x="760" y="180" xlink:href="#p" />
<use x="780" y="180" xlink:href="#p" />
<use x="800" y="180" xlink:href="#p" />
<use x="20" y="200" xlink:href="#p" />
<use x="40" y="200" xlink:href="#p" />
<use x="60" y="200" xlink:href="#p" />
<use x="100" y="200" xlink:href="#p" />
<use x="260" y="200" xlink:href="#p" />
<use x="280" y="200" xlink:href="#p" />
<use x="300" y="200" xlink:href="#p" />
<use x="320" y="200" xlink:href="#p" />
<use x="340" y="200" xlink:href="#p" />
<use x="360" y="200" xlink:href="#p" />
<use x="380" y="200" xlink:href="#p" />
<use x="400" y="200" xlink:href="#p" />
<use x="420" y="200" xlink:href="#p" />
<use x="440" y="200" xlink:href="#p" />
<use x="460" y="200" xlink:href="#p" />
<use x="500" y="200" xlink:href="#p" />
<use x="520" y="200" xlink:href="#p" />
<use x="580" y="200" xlink:href="#p" />
<use x="720" y="200" xlink:href="#p" />
<use x="780" y="200" xlink:href="#p" />
<use x="20" y="220" xlink:href="#p" />
<use x="40" y="220" xlink:href="#p" />
<use x="60" y="220" xlink:href="#p" />
<use x="80" y="220" xlink:href="#p" />
<use x="100" y="220" xlink:href="#p" />
<use x="120" y="220" xlink:href="#p" />
<use x="140" y="220" xlink:href="#p" />
<use x="180" y="220" xlink:href="#p" />
<use x="280" y="220" xlink:href="#p" />
<use x="360" y="220" xlink:href="#p" />
<use x="440" y="220" xlink:href="#p" />
<use x="480" y="220" xlink:href="#p" />
<use x="540" y="220" xlink:href="#p" />
<use x="580" y="220" xlink:href="#p" />
<use x="640" y="220" xlink:href="#p" />
<use x="660" y="220" xlink:href="#p" />
<use x="720" y="220" xlink:href="#p" />
<use x="760" y="220" xlink:href="#p" />
<use x="780" y="220" xlink:href="#p" />
<use x="800" y="220" xlink:href="#p" />
<use x="820" y="220" xlink:href="#p" />
<use x="20" y="240" xlink:href="#p" />
<use x="40" y="240" xlink:href="#p" />
<use x="60" y="240" xlink:href="#p" />
<use x="160" y="240" xlink:href="#p" />
<use x="180" y="240" xlink:href="#p" />
<use x="200" y="240" xlink:href="#p" />
<use x="260" y="240" xlink:href="#p" />
<use x="280" y="240" xlink:href="#p" />
<use x="320" y="240" xlink:href="#p" />
<use x="360" y="240" xlink:href="#p" />
<use x="400" y="240" xlink:href="#p" />
<use x="440" y="240" xlink:href="#p" />
<use x="500" y="240" xlink:href="#p" />
<use x="520" y="240" xlink:href="#p" />
<use x="540" y="240" xlink:href="#p" />
<use x="560" y="240" xlink:href="#p" />
<use x="580" y="240" xlink:href="#p" />
<use x="640" y="240" xlink:href="#p" />
<use x="700" y="240" xlink:href="#p" />
<use x="720" y="240" xlink:href="#p" />
<use x="760" y="240" xlink:href="#p" />
<use x="820" y="240" xlink:href="#p" />
<use x="60" y="260" xlink:href="#p" />
<use x="80" y="260" xlink:href="#p" />
<use x="100" y="260" xlink:href="#p" />
<use x="120" y="260" xlink:href="#p" />
<use x="140" y="260" xlink:href="#p" />
<use x="160" y="260" xlink:href="#p" />
<use x="260" y="260" xlink:href="#p" />
<use x="320" y="260" xlink:href="#p" />
<use x="340" y="260" xlink:href="#p" />
<use x="360" y="260" xlink:href="#p" />
<use x="380" y="260" xlink:href="#p" />
<use x="520" y="260" xlink:href="#p" />
<use x="580" y="260" xlink:href="#p" />
<use x="620" y="260" xlink:href="#p" />
<use x="640" y="260" xlink:href="#p" />
<use x="740" y="260" xlink:href="#p" />
<use x="800" y="260" xlink:href="#p" />
<use x="820" y="260" xlink:href="#p" />
<use x="80" y="280" xlink:href="#p" />
<use x="100" y="280" xlink:href="#p" />
<use x="180" y="280" xlink:href="#p" />
<use x="200" y="280" xlink:href="#p" />
<use x="220" y="280" xlink:href="#p" />
<use x="240" y="280" xlink:href="#p" />
<use x="280" y="280" xlink:href="#p" />
<use x="400" y="280" xlink:href="#p" />
<use x="440" y="280" xlink:href="#p" />
<use x="480" y="280" xlink:href="#p" />
<use x="540" y="280" xlink:href="#p" />
<use x="580" y="280" xlink:href="#p" />
<use x="620" y="280" xlink:href="#p" />
<use x="720" y="280" xlink:href="#p" />
<use x="780" y="280" xlink:href="#p" />
<use x="20" y="300" xlink:href="#p" />
<use x="60" y="300" xlink:href="#p" />
<use x="140" y="300" xlink:href="#p" />
<use x="160" y="300" xlink:href="#p" />
<use x="180" y="300" xlink:href="#p" />
<use x="240" y="300" xlink:href="#p" />
<use x="280" y="300" xlink:href="#p" />
<use x="300" y="300" xlink:href="#p" />
<use x="360" y="300" xlink:href="#p" />
<use x="480" y="300" xlink:href="#p" />
<use x="500" y="300" xlink:href="#p" />
<use x="520" y="300" xlink:href="#p" />
<use x="540" y="300" xlink:href="#p" />
<use x="580" y="300" xlink:href="#p" />
<use x="640" y="300" xlink:href="#p" />
<use x="680" y="300" xlink:href="#p" />
<use x="700" y="300" xlink:href="#p" />
<use x="720" y="300" xlink:href="#p" />
<use x="800" y="300" xlink:href="#p" />
<use x="20" y="320" xlink:href="#p" />
<use x="40" y="320" xlink:href="#p" />
<use x="100" y="320" xlink:href="#p" />
<use x="220" y="320" xlink:href="#p" />
<use x="260" y="320" xlink:href="#p" />
<use x="340" y="320" xlink:href="#p" />
<use x="360" y="320" xlink:href="#p" />
<use x="380" y="320" xlink:href="#p" />
<use x="400" y="320" xlink:href="#p" />
<use x="440" y="320" xlink:href="#p" />
<use x="480" y="320" xlink:href="#p" />
<use x="540" y="320" xlink:href="#p" />
<use x="560" y="320" xlink:href="#p" />
<use x="580" y="320" xlink:href="#p" />
<use x="620" y="320" xlink:href="#p" />
<use x="720" y="320" xlink:href="#p" />
<use x="760" y="320" xlink:href="#p" />
<use x="820" y="320" xlink:href="#p" />
<use x="40" y="340" xlink:href="#p" />
<use x="60" y="340" xlink:href="#p" />
<use x="80" y="340" xlink:href="#p" />
<use x="100" y="340" xlink:href="#p" />
<use x="120" y="340" xlink:href="#p" />
<use x="140" y="340" xlink:href="#p" />
<use x="180" y="340" xlink:href="#p" />
<use x="240" y="340" xlink:href="#p" />
<use x="260" y="340" xlink:href="#p" />
<use x="320" y="340" xlink:href="#p" />
<use x="400" y="340" xlink:href="#p" />
<use x="460" y="340" xlink:href="#p" />
<use x="520" y="340" xlink:href="#p" />
<use x="640" y="340" xlink:href="#p" />
<use x="700" y="340" xlink:href="#p" />
<use x="720" y="340" xlink:href="#p" />
<use x="760" y="340" xlink:href="#p" />
<use x="780" y="340" xlink:href="#p" />
<use x="820" y="340" xlink:href="#p" />
<use x="80" y="360" xlink:href="#p" />
<use x="200" y="360" xlink:href="#p" />
<use x="220" y="360" xlink:href="#p" />
<use x="280" y="360" xlink:href="#p" />
<use x="300" y="360" xlink:href="#p" />
<use x="380" y="360" xlink:href="#p" />
<use x="400" y="360" xlink:href="#p" />
<use x="420" y="360" xlink:href="#p" />
<use x="440" y="360" xlink:href="#p" />
<use x="460" y="360" xlink:href="#p" />
<use x="480" y="360" xlink:href="#p" />
<use x="520" y="360" xlink:href="#p" />
<use x="540" y="360" xlink:href="#p" />
<use x="580" y="360" xlink:href="#p" />
<use x="660" y="360" xlink:href="#p" />
<use x="680" y="360" xlink:href="#p" />
<use x="700" y="360" xlink:href="#p" />
<use x="760" y="360" xlink:href="#p" />
<use x="820" y="360" xlink:href="#p" />
<use x="40" y="380" xlink:href="#p" />
<use x="60" y="380" xlink:href="#p" />
<use x="120" y="380" xlink:href="#p" />
<use x="140" y="380" xlink:href="#p" />
<use x="180" y="380" xlink:href="#p" />
<use x="240" y="380" xlink:href="#p" />
<use x="280" y="380" xlink:href="#p" />
<use x="320" y="380" xlink:href="#p" />
<use x="360" y="380" xlink:href="#p" />
<use x="380" y="380" xlink:href="#p" />
<use x="420" y="380" xlink:href="#p" />
<use x="440" y="380" xlink:href="#p" />
<use x="500" y="380" xlink:href="#p" />
<use x="600" y="380" xlink:href="#p" />
<use x="620" y="380" xlink:href="#p" />
<use x="640" y="380" xlink:href="#p" />
<use x="660" y="380" xlink:href="#p" />
<use x="700" y="380" xlink:href="#p" />
<use x="720" y="380" xlink:href="#p" />
<use x="740" y="380" xlink:href="#p" />
<use x="800" y="380" xlink:href="#p" />
<use x="20" y="400" xlink:href="#p" />
<use x="40" y="400" xlink:href="#p" />
<use x="60" y="400" xlink:href="#p" />
<use x="160" y="400" xlink:href="#p" />
<use x="180" y="400" xlink:href="#p" />
<use x="200" y="400" xlink:href="#p" />
<use x="260" y="400" xlink:href="#p" />
<use x="280" y="400" xlink:href="#p" />
<use x="300" y="400" xlink:href="#p" />
<use x="320" y="400" xlink:href="#p" />
<use x="340" y="400" xlink:href="#p" />
<use x="460" y="400" xlink:href="#p" />
<use x="480" y="400" xlink:href="#p" />
<use x="500" y="400" xlink:href="#p" />
<use x="520" y="400" xlink:href="#p" />
<use x="560" y="400" xlink:href="#p" />
<use x="620" y="400" xlink:href="#p" />
<use x="640" y="400" xlink:href="#p" />
<use x="660" y="400" xlink:href="#p" />
<use x="700" y="400" xlink:href="#p" />
<use x="800" y="400" xlink:href="#p" />
<use x="20" y="420" xlink:href="#p" />
<use x="80" y="420" xlink:href="#p" />
<use x="100" y="420" xlink:href="#p" />
<use x="140" y="420" xlink:href="#p" />
<use x="180" y="420" xlink:href="#p" />
<use x="260" y="420" xlink:href="#p" />
<use x="300" y="420" xlink:href="#p" />
<use x="320" y="420" xlink:href="#p" />
<use x="340" y="420" xlink:href="#p" />
<use x="420" y="420" xlink:href="#p" />
<use x="460" y="420" xlink:href="#p" />
<use x="500" y="420" xlink:href="#p" />
<use x="520" y="420" xlink:href="#p" />
<use x="560" y="420" xlink:href="#p" />
<use x="580" y="420" xlink:href="#p" />
<use x="600" y="420" xlink:href="#p" />
<use x="620" y="420" xlink:href="#p" />
<use x="640" y="420" xlink:href="#p" />
<use x="680" y="420" xlink:href="#p" />
<use x="700" y="420" xlink:href="#p" />
<use x="740" y="420" xlink:href="#p" />
<use x="760" y="420" xlink:href="#p" />
<use x="780" y="420" xlink:href="#p" />
<use x="40" y="440" xlink:href="#p" />
<use x="80" y="440" xlink:href="#p" />
<use x="120" y="440" xlink:href="#p" />
<use x="180" y="440" xlink:href="#p" />
<use x="200" y="440" xlink:href="#p" />
<use x="220" y="440" xlink:href="#p" />
<use x="240" y="440" xlink:href="#p" />
<use x="260" y="440" xlink:href="#p" />
<use x="300" y="440" xlink:href="#p" />
<use x="340" y="440" xlink:href="#p" />
<use x="380" y="440" xlink:href="#p" />
<use x="440" y="440" xlink:href="#p" />
<use x="460" y="440" xlink:href="#p" />
<use x="500" y="440" xlink:href="#p" />
<use x="540" y="440" xlink:href="#p" />
<use x="560" y="440" xlink:href="#p" />
<use x="600" y="440" xlink:href="#p" />
<use x="620" y="440" xlink:href="#p" />
<use x="660" y="440" xlink:href="#p" />
<use x="680" y="440" xlink:href="#p" />
<use x="700" y="440" xlink:href="#p" />
<use x="820" y="440" xlink:href="#p" />
<use x="20" y="460" xlink:href="#p" />
<use x="40" y="460" xlink:href="#p" />
<use x="80" y="460" xlink:href="#p" />
<use x="120" y="460" xlink:href="#p" />
<use x="140" y="460" xlink:href="#p" />
<use x="160" y="460" xlink:href="#p" />
<use x="180" y="460" xlink:href="#p" />
<use x="200" y="460" xlink:href="#p" />
<use x="280" y="460" xlink:href="#p" />
<use x="300" y="460" xlink:href="#p" />
<use x="440" y="460" xlink:href="#p" />
<use x="500" y="460" xlink:href="#p" />
<use x="520" y="460" xlink:href="#p" />
<use x="560" y="460" xlink:href="#p" />
<use x="600" y="460" xlink:href="#p" />
<use x="620" y="460" xlink:href="#p" />
<use x="640" y="460" xlink:href="#p" />
<use x="660" y="460" xlink:href="#p" />
<use x="700" y="460" xlink:href="#p" />
<use x="740" y="460" xlink:href="#p" />
<use x="760" y="460" xlink:href="#p" />
<use x="780" y="460" xlink:href="#p" />
<use x="820" y="460" xlink:href="#p" />
<use x="80" y="480" xlink:href="#p" />
<use x="120" y="480" xlink:href="#p" />
<use x="180" y="480" xlink:href="#p" />
<use x="200" y="480" xlink:href="#p" />
<use x="220" y="480" xlink:href="#p" />
<use x="240" y="480" xlink:href="#p" />
<use x="320" y="480" xlink:href="#p" />
<use x="340" y="480" xlink:href="#p" />
<use x="360" y="480" xlink:href="#p" />
<use x="380" y="480" xlink:href="#p" />
<use x="460" y="480" xlink:href="#p" />
<use x="520" y="480" xlink:href="#p" />
<use x="560" y="480" xlink:href="#p" />
<use x="580" y="480" xlink:href="#p" />
<use x="640" y="480" xlink:href="#p" />
<use x="660" y="480" xlink:href="#p" />
<use x="680" y="480" xlink:href="#p" />
<use x="20" y="500" xlink:href="#p" />
<use x="40" y="500" xlink:href="#p" />
<use x="60" y="500" xlink:href="#p" />
<use x="100" y="500" xlink:href="#p" />
<use x="140" y="500" xlink:href="#p" />
<use x="220" y="500" xlink:href="#p" />
<use x="240" y="500" xlink:href="#p" />
<use x="280" y="500" xlink:href="#p" />
<use x="300" y="500" xlink:href="#p" />
<use x="320" y="500" xlink:href="#p" />
<use x="380" y="500" xlink:href="#p" />
<use x="500" y="500" xlink:href="#p" />
<use x="520" y="500" xlink:href="#p" />
<use x="560" y="500" xlink:href="#p" />
<use x="580" y="500" xlink:href="#p" />
<use x="620" y="500" xlink:href="#p" />
<use x="640" y="500" xlink:href="#p" />
<use x="740" y="500" xlink:href="#p" />
<use x="760" y="500" xlink:href="#p" />
<use x="780" y="500" xlink:href="#p" />
<use x="820" y="500" xlink:href="#p" />
<use x="80" y="520" xlink:href="#p" />
<use x="100" y="520" xlink:href="#p" />
<use x="120" y="520" xlink:href="#p" />
<use x="240" y="520" xlink:href="#p" />
<use x="300" y="520" xlink:href="#p" />
<use x="320" y="520" xlink:href="#p" />
<use x="340" y="520" xlink:href="#p" />
<use x="400" y="520" xlink:href="#p" />
<use x="420" y="520" xlink:href="#p" />
<use x="440" y="520" xlink:href="#p" />
<use x="460" y="520" xlink:href="#p" />
<use x="540" y="520" xlink:href="#p" />
<use x="560" y="520" xlink:href="#p" />
<use x="640" y="520" xlink:href="#p" />
<use x="660" y="520" xlink:href="#p" />
<use x="680" y="520" xlink:href="#p" />
<use x="700" y="520" xlink:href="#p" />
<use x="740" y="520" xlink:href="#p" />
<use x="760" y="520" xlink:href="#p" />
<use x="820" y="520" xlink:href="#p" />
<use x="20" y="540" xlink:href="#p" />
<use x="60" y="540" xlink:href="#p" />
<use x="140" y="540" xlink:href="#p" />
<use x="220" y="540" xlink:href="#p" />
<use x="300" y="540" xlink:href="#p" />
<use x="320" y="540" xlink:href="#p" />
<use x="340" y="540" xlink:href="#p" />
<use x="360" y="540" xlink:href="#p" />
<use x="380" y="540" xlink:href="#p" />
<use x="400" y="540" xlink:href="#p" />
<use x="420" y="540" xlink:href="#p" />
<use x="460" y="540" xlink:href="#p" />
<use x="480" y="540" xlink:href="#p" />
<use x="520" y="540" xlink:href="#p" />
<use x="540" y="540" xlink:href="#p" />
<use x="560" y="540" xlink:href="#p" />
<use x="580" y="540" xlink:href="#p" />
<use x="680" y="540" xlink:href="#p" />
<use x="700" y="540" xlink:href="#p" />
<use x="720" y="540" xlink:href="#p" />
<use x="760" y="540" xlink:href="#p" />
<use x="780" y="540" xlink:href="#p" />
<use x="800" y="540" xlink:href="#p" />
<use x="820" y="540" xlink:href="#p" />
<use x="60" y="560" xlink:href="#p" />
<use x="80" y="560" xlink:href="#p" />
<use x="180" y="560" xlink:href="#p" />
<use x="340" y="560" xlink:href="#p" />
<use x="400" y="560" xlink:href="#p" />
<use x="480" y="560" xlink:href="#p" />
<use x="520" y="560" xlink:href="#p" />
<use x="540" y="560" xlink:href="#p" />
<use x="560" y="560" xlink:href="#p" />
<use x="580" y="560" xlink:href="#p" />
<use x="600" y="560" xlink:href="#p" />
<use x="640" y="560" xlink:href="#p" />
<use x="660" y="560" xlink:href="#p" />
<use x="680" y="560" xlink:href="#p" />
<use x="720" y="560" xlink:href="#p" />
<use x="760" y="560" xlink:href="#p" />
<use x="800" y="560" xlink:href="#p" />
<use x="820" y="560" xlink:href="#p" />
<use x="20" y="580" xlink:href="#p" />
<use x="40" y="580" xlink:href="#p" />
<use x="60" y="580" xlink:href="#p" />
<use x="100" y="580" xlink:href="#p" />
<use x="140" y="580" xlink:href="#p" />
<use x="160" y="580" xlink:href="#p" />
<use x="220" y="580" xlink:href="#p" />
<use x="260" y="580" xlink:href="#p" />
<use x="280" y="580" xlink:href="#p" />
<use x="320" y="580" xlink:href="#p" />
<use x="340" y="580" xlink:href="#p" />
<use x="400" y="580" xlink:href="#p" />
<use x="420" y="580" xlink:href="#p" />
<use x="480" y="580" xlink:href="#p" />
<use x="500" y="580" xlink:href="#p" />
<use x="520" y="580" xlink:href="#p" />
<use x="540" y="580" xlink:href="#p" />
<use x="560" y="580" xlink:href="#p" />
<use x="600" y="580" xlink:href="#p" />
<use x="620" y="580" xlink:href="#p" />
<use x="640" y="580" xlink:href="#p" />
<use x="660" y="580" xlink:href="#p" />
<use x="680" y="580" xlink:href="#p" />
<use x="700" y="580" xlink:href="#p" />
<use x="720" y="580" xlink:href="#p" />
<use x="800" y="580" xlink:href="#p" />
<use x="820" y="580" xlink:href="#p" />
<use x="80" y="600" xlink:href="#p" />
<use x="100" y="600" xlink:href="#p" />
<use x="160" y="600" xlink:href="#p" />
<use x="200" y="600" xlink:href="#p" />
<use x="220" y="600" xlink:href="#p" />
<use x="240" y="600" xlink:href="#p" />
<use x="260" y="600" xlink:href="#p" />
<use x="320" y="600" xlink:href="#p" />
<use x="360" y="600" xlink:href="#p" />
<use x="380" y="600" xlink:href="#p" />
<use x="480" y="600" xlink:href="#p" />
<use x="520" y="600" xlink:href="#p" />
<use x="540" y="600" xlink:href="#p" />
<use x="660" y="600" xlink:href="#p" />
<use x="680" y="600" xlink:href="#p" />
<use x="20" y="620" xlink:href="#p" />
<use x="40" y="620" xlink:href="#p" />
<use x="80" y="620" xlink:href="#p" />
<use x="100" y="620" xlink:href="#p" />
<use x="140" y="620" xlink:href="#p" />
<use x="180" y="620" xlink:href="#p" />
<use x="220" y="620" xlink:href="#p" />
<use x="280" y="620" xlink:href="#p" />
<use x="340" y="620" xlink:href="#p" />
<use x="360" y="620" xlink:href="#p" />
<use x="440" y="620" xlink:href="#p" />
<use x="460" y="620" xlink:href="#p" />
<use x="500" y="620" xlink:href="#p" />
<use x="520" y="620" xlink:href="#p" />
<use x="540" y="620" xlink:href="#p" />
<use x="560" y="620" xlink:href="#p" />
<use x="660" y="620" xlink:href="#p" />
<use x="780" y="620" xlink:href="#p" />
<use x="800" y="620" xlink:href="#p" />
<use x="820" y="620" xlink:href="#p" />
<use x="60" y="640" xlink:href="#p" />
<use x="180" y="640" xlink:href="#p" />
<use x="220" y="640" xlink:href="#p" />
<use x="260" y="640" xlink:href="#p" />
<use x="280" y="640" xlink:href="#p" />
<use x="300" y="640" xlink:href="#p" />
<use x="340" y="640" xlink:href="#p" />
<use x="380" y="640" xlink:href="#p" />
<use x="440" y="640" xlink:href="#p" />
<use x="500" y="640" xlink:href="#p" />
<use x="620" y="640" xlink:href="#p" />
<use x="640" y="640" xlink:href="#p" />
<use x="660" y="640" xlink:href="#p" />
<use x="680" y="640" xlink:href="#p" />
<use x="700" y="640" xlink:href="#p" />
<use x="720" y="640" xlink:href="#p" />
<use x="760" y="640" xlink:href="#p" />
<use x="780" y="640" xlink:href="#p" />
<use x="800" y="640" xlink:href="#p" />
<use x="820" y="640" xlink:href="#p" />
<use x="20" y="660" xlink:href="#p" />
<use x="40" y="660" xlink:href="#p" />
<use x="80" y="660" xlink:href="#p" />
<use x="100" y="660" xlink:href="#p" />
<use x="140" y="660" xlink:href="#p" />
<use x="300" y="660" xlink:href="#p" />
<use x="380" y="660" xlink:href="#p" />
<use x="400" y="660" xlink:href="#p" />
<use x="420" y="660" xlink:href="#p" />
<use x="440" y="660" xlink:href="#p" />
<use x="480" y="660" xlink:href="#p" />
<use x="540" y="660" xlink:href="#p" />
<use x="560" y="660" xlink:href="#p" />
<use x="620" y="660" xlink:href="#p" />
<use x="660" y="660" xlink:href="#p" />
<use x="680" y="660" xlink:href="#p" />
<use x="700" y="660" xlink:href="#p" />
<use x="720" y="660" xlink:href="#p" />
<use x="740" y="660" xlink:href="#p" />
<use x="760" y="660" xlink:href="#p" />
<use x="780" y="660" xlink:href="#p" />
<use x="820" y="660" xlink:href="#p" />
<use x="180" y="680" xlink:href="#p" />
<use x="200" y="680" xlink:href="#p" />
<use x="240" y="680" xlink:href="#p" />
<use x="280" y="680" xlink:href="#p" />
<use x="320" y="680" xlink:href="#p" />
<use x="380" y="680" xlink:href="#p" />
<use x="440" y="680" xlink:href="#p" />
<use x="500" y="680" xlink:href="#p" />
<use x="580" y="680" xlink:href="#p" />
<use x="600" y="680" xlink:href="#p" />
<use x="640" y="680" xlink:href="#p" />
<use x="660" y="680" xlink:href="#p" />
<use x="740" y="680" xlink:href="#p" />
<use x="20" y="700" xlink:href="#p" />
<use x="40" y="700" xlink:href="#p" />
<use x="60" y="700" xlink:href="#p" />
<use x="80" y="700" xlink:href="#p" />
<use x="100" y="700" xlink:href="#p" />
<use x="120" y="700" xlink:href="#p" />
<use x="140" y="700" xlink:href="#p" />
<use x="180" y="700" xlink:href="#p" />
<use x="220" y="700" xlink:href="#p" />
<use x="260" y="700" xlink:href="#p" />
<use x="320" y="700" xlink:href="#p" />
<use x="340" y="700" xlink:href="#p" />
<use x="360" y="700" xlink:href="#p" />
<use x="440" y="700" xlink:href="#p" />
<use x="460" y="700" xlink:href="#p" />
<use x="480" y="700" xlink:href="#p" />
<use x="520" y="700" xlink:href="#p" />
<use x="560" y="700" xlink:href="#p" />
<use x="580" y="700" xlink:href="#p" />
<use x="660" y="700" xlink:href="#p" />
<use x="700" y="700" xlink:href="#p" />
<use x="740" y="700" xlink:href="#p" />
<use x="800" y="700" xlink:href="#p" />
<use x="820" y="700" xlink:href="#p" />
<use x="20" y="720" xlink:href="#p" />
<use x="140" y="720" xlink:href="#p" />
<use x="180" y="720" xlink:href="#p" />
<use x="280" y="720" xlink:href="#p" />
<use x="360" y="720" xlink:href="#p" />
<use x="440" y="720" xlink:href="#p" />
<use x="460" y="720" xlink:href="#p" />
<use x="480" y="720" xlink:href="#p" />
<use x="500" y="720" xlink:href="#p" />
<use x="520" y="720" xlink:href="#p" />
<use x="540" y="720" xlink:href="#p" />
<use x="560" y="720" xlink:href="#p" />
<use x="580" y="720" xlink:href="#p" />
<use x="600" y="720" xlink:href="#p" />
<use x="640" y="720" xlink:href="#p" />
<use x="660" y="720" xlink:href="#p" />
<use x="740" y="720" xlink:href="#p" />
<use x="760" y="720" xlink:href="#p" />
<use x="780" y="720" xlink:href="#p" />
<use x="20" y="740" xlink:href="#p" />
<use x="60" y="740" xlink:href="#p" />
<use x="80" y="740" xlink:href="#p" />
<use x="100" y="740" xlink:href="#p" />
<use x="140" y="740" xlink:href="#p" />
<use x="240" y="740" xlink:href="#p" />
<use x="260" y="740" xlink:href="#p" />
<use x="320" y="740" xlink:href="#p" />
<use x="340" y="740" xlink:href="#p" />
<use x="380" y="740" xlink:href="#p" />
<use x="420" y="740" xlink:href="#p" />
<use x="440" y="740" xlink:href="#p" />
<use x="480" y="740" xlink:href="#p" />
<use x="500" y="740" xlink:href="#p" />
<use x="540" y="740" xlink:href="#p" />
<use x="560" y="740" xlink:href="#p" />
<use x="600" y="740" xlink:href="#p" />
<use x="660" y="740" xlink:href="#p" />
<use x="680" y="740" xlink:href="#p" />
<use x="700" y="740" xlink:href="#p" />
<use x="720" y="740" xlink:href="#p" />
<use x="740" y="740" xlink:href="#p" />
<use x="800" y="740" xlink:href="#p" />
<use x="20" y="760" xlink:href="#p" />
<use x="60" y="760" xlink:href="#p" />
<use x="80" y="760" xlink:href="#p" />
<use x="100" y="760" xlink:href="#p" />
<use x="140" y="760" xlink:href="#p" />
<use x="200" y="760" xlink:href="#p" />
<use x="220" y="760" xlink:href="#p" />
<use x="300" y="760" xlink:href="#p" />
<use x="340" y="760" xlink:href="#p" />
<use x="360" y="760" xlink:href="#p" />
<use x="400" y="760" xlink:href="#p" />
<use x="440" y="760" xlink:href="#p" />
<use x="460" y="760" xlink:href="#p" />
<use x="500" y="760" xlink:href="#p" />
<use x="540" y="760" xlink:href="#p" />
<use x="580" y="760" xlink:href="#p" />
<use x="600" y="760" xlink:href="#p" />
<use x="660" y="760" xlink:href="#p" />
<use x="680" y="760" xlink:href="#p" />
<use x="700" y="760" xlink:href="#p" />
<use x="720" y="760" xlink:href="#p" />
<use x="740" y="760" xlink:href="#p" />
<use x="760" y="760" xlink:href="#p" />
<use x="780" y="760" xlink:href="#p" />
<use x="20" y="780" xlink:href="#p" />
<use x="60" y="780" xlink:href="#p" />
<use x="80" y="780" xlink:href="#p" />
<use x="100" y="780" xlink:href="#p" />
<use x="140" y="780" xlink:href="#p" />
<use x="180" y="780" xlink:href="#p" />
<use x="200" y="780" xlink:href="#p" />
<use x="220" y="780" xlink:href="#p" />
<use x="280" y="780" xlink:href="#p" />
<use x="380" y="780" xlink:href="#p" />
<use x="400" y="780" xlink:href="#p" />
<use x="500" y="780" xlink:href="#p" />
<use x="540" y="780" xlink:href="#p" />
<use x="560" y="780" xlink:href="#p" />
<use x="580" y="780" xlink:href="#p" />
<use x="660" y="780" xlink:href="#p" />
<use x="680" y="780" xlink:href="#p" />
<use x="740" y="780" xlink:href="#p" />
<use x="760" y="780" xlink:href="#p" />
<use x="800" y="780" xlink:href="#p" />
<use x="820" y="780" xlink:href="#p" />
<use x="20" y="800" xlink:href="#p" />
<use x="140" y="800" xlink:href="#p" />
<use x="220" y="800" xlink:href="#p" />
<use x="260" y="800" xlink:href="#p" />
<use x="320" y="800" xlink:href="#p" />
<use x="360" y="800" xlink:href="#p" />
<use x="400" y="800" xlink:href="#p" />
<use x="480" y="800" xlink:href="#p" />
<use x="500" y="800" xlink:href="#p" />
<use x="520" y="800" xlink:href="#p" />
<use x="540" y="800" xlink:href="#p" />
<use x="560" y="800" xlink:href="#p" />
<use x="580" y="800" xlink:href="#p" />
<use x="680" y="800" xlink:href="#p" />
<use x="760" y="800" xlink:href="#p" />
<use x="780" y="800" xlink:href="#p" />
<use x="20" y="820" xlink:href="#p" />
<use x="40" y="820" xlink:href="#p" />
<use x="60" y="820" xlink:href="#p" />
<use x="80" y="820" xlink:href="#p" />
<use x="100" y="820" xlink:href="#p" />
<use x="120" y="820" xlink:href="#p" />
<use x="140" y="820" xlink:href="#p" />
<use x="220" y="820" xlink:href="#p" />
<use x="300" y="820" xlink:href="#p" />
<use x="320" y="820" xlink:href="#p" />
<use x="360" y="820" xlink:href="#p" />
<use x="440" y="820" xlink:href="#p" />
<use x="460" y="820" xlink:href="#p" />
<use x="500" y="820" xlink:href="#p" />
<use x="560" y="820" xlink:href="#p" />
<use x="640" y="820" xlink:href="#p" />
<use x="680" y="820" xlink:href="#p" />
<use x="740" y="820" xlink:href="#p" />
<use x="760" y="820" xlink:href="#p" />
<use x="780" y="820" xlink:href="#p" />
<use x="820" y="820" xlink:href="#p" />
</g>
</svg>